        <svg width="187" height="86" viewBox="0 0 187 86" fill="none" xmlns="http://www.w3.org/2000/svg">
            <path d="M10.9773 60.0682V75H2.64205V40.0909H10.7045V53.625H10.9943C11.5852 52.0114 12.5511 50.75 13.892 49.8409C15.2443 48.9318 16.8977 48.4773 18.8523 48.4773C20.6932 48.4773 22.2955 48.8864 23.6591 49.7045C25.0227 50.5114 26.0795 51.6534 26.8295 53.1307C27.5909 54.608 27.9659 56.3352 27.9545 58.3125V75H19.6193V59.9489C19.6307 58.4943 19.267 57.358 18.5284 56.5398C17.7898 55.7216 16.75 55.3125 15.4091 55.3125C14.5341 55.3125 13.7614 55.5057 13.0909 55.892C12.4318 56.267 11.9148 56.8068 11.5398 57.5114C11.1761 58.2159 10.9886 59.0682 10.9773 60.0682ZM40.5384 75.4432C38.8679 75.4432 37.3849 75.1648 36.0895 74.608C34.8054 74.0398 33.7884 73.1875 33.0384 72.0511C32.2997 70.9034 31.9304 69.4659 31.9304 67.7386C31.9304 66.2841 32.1861 65.0568 32.6974 64.0568C33.2088 63.0568 33.9134 62.2443 34.8111 61.6193C35.7088 60.9943 36.7429 60.5227 37.9134 60.2045C39.0838 59.875 40.3338 59.6534 41.6634 59.5398C43.152 59.4034 44.3509 59.2614 45.2599 59.1136C46.169 58.9545 46.8281 58.733 47.2372 58.4489C47.6577 58.1534 47.8679 57.7386 47.8679 57.2045V57.1193C47.8679 56.2443 47.5668 55.5682 46.9645 55.0909C46.3622 54.6136 45.5497 54.375 44.527 54.375C43.4247 54.375 42.5384 54.6136 41.8679 55.0909C41.1974 55.5682 40.7713 56.2273 40.5895 57.0682L32.902 56.7955C33.1293 55.2045 33.7145 53.7841 34.6577 52.5341C35.6122 51.2727 36.919 50.2841 38.5781 49.5682C40.2486 48.8409 42.2543 48.4773 44.5952 48.4773C46.2656 48.4773 47.8054 48.6761 49.2145 49.0739C50.6236 49.4602 51.8509 50.0284 52.8963 50.7784C53.9418 51.517 54.7486 52.4261 55.3168 53.5057C55.8963 54.5852 56.1861 55.8182 56.1861 57.2045V75H48.3452V71.3523H48.1406C47.6747 72.2386 47.0781 72.9886 46.3509 73.6023C45.6349 74.2159 44.7884 74.6761 43.8111 74.983C42.8452 75.2898 41.7543 75.4432 40.5384 75.4432ZM43.1122 69.9886C44.0099 69.9886 44.8168 69.8068 45.5327 69.4432C46.2599 69.0795 46.8395 68.5795 47.2713 67.9432C47.7031 67.2955 47.919 66.5455 47.919 65.6932V63.2045C47.6804 63.3295 47.3906 63.4432 47.0497 63.5455C46.7202 63.6477 46.3565 63.7443 45.9588 63.8352C45.5611 63.9261 45.152 64.0057 44.7315 64.0739C44.3111 64.142 43.9077 64.2045 43.5213 64.2614C42.7372 64.3864 42.0668 64.5795 41.5099 64.8409C40.9645 65.1023 40.544 65.4432 40.2486 65.8636C39.9645 66.2727 39.8224 66.7614 39.8224 67.3295C39.8224 68.1932 40.1293 68.8523 40.7429 69.3068C41.3679 69.7614 42.1577 69.9886 43.1122 69.9886ZM61.2827 75V40.0909H69.6179V53.3011H69.7884C70.1293 52.5057 70.6122 51.7386 71.2372 51C71.8736 50.2614 72.6804 49.6591 73.6577 49.1932C74.6463 48.7159 75.8281 48.4773 77.2031 48.4773C79.0213 48.4773 80.7202 48.9545 82.2997 49.9091C83.8906 50.8636 85.1747 52.3352 86.152 54.3239C87.1293 56.3125 87.6179 58.8466 87.6179 61.9261C87.6179 64.892 87.1463 67.375 86.2031 69.375C85.2713 71.375 84.0099 72.875 82.419 73.875C80.8395 74.875 79.0838 75.375 77.152 75.375C75.8338 75.375 74.6918 75.1591 73.7259 74.7273C72.7599 74.2955 71.9474 73.7273 71.2884 73.0227C70.6406 72.3182 70.1406 71.5625 69.7884 70.7557H69.5327V75H61.2827ZM69.4474 61.9091C69.4474 63.3182 69.6349 64.5455 70.0099 65.5909C70.3963 66.6364 70.9474 67.4489 71.6634 68.0284C72.3906 68.5966 73.2599 68.8807 74.2713 68.8807C75.294 68.8807 76.1634 68.5966 76.8793 68.0284C77.5952 67.4489 78.1349 66.6364 78.4986 65.5909C78.8736 64.5455 79.0611 63.3182 79.0611 61.9091C79.0611 60.5 78.8736 59.2784 78.4986 58.2443C78.1349 57.2102 77.5952 56.4091 76.8793 55.8409C76.1747 55.2727 75.3054 54.9886 74.2713 54.9886C73.2486 54.9886 72.3793 55.267 71.6634 55.8239C70.9474 56.3807 70.3963 57.1761 70.0099 58.2102C69.6349 59.2443 69.4474 60.4773 69.4474 61.9091ZM91.9858 75V48.8182H100.321V75H91.9858ZM96.1619 45.767C94.9915 45.767 93.9858 45.3807 93.1449 44.608C92.304 43.8239 91.8835 42.8807 91.8835 41.7784C91.8835 40.6875 92.304 39.7557 93.1449 38.983C93.9858 38.1989 94.9915 37.8068 96.1619 37.8068C97.3438 37.8068 98.3494 38.1989 99.179 38.983C100.02 39.7557 100.44 40.6875 100.44 41.7784C100.44 42.8807 100.02 43.8239 99.179 44.608C98.3494 45.3807 97.3438 45.767 96.1619 45.767ZM120.405 48.8182V54.9545H103.888V48.8182H120.405ZM107.348 42.5455H115.683V66.767C115.683 67.2784 115.763 67.6932 115.922 68.0114C116.092 68.3182 116.337 68.5398 116.655 68.6761C116.973 68.8011 117.354 68.8636 117.797 68.8636C118.115 68.8636 118.45 68.8352 118.803 68.7784C119.166 68.7102 119.439 68.6534 119.621 68.608L120.882 74.625C120.484 74.7386 119.922 74.8807 119.195 75.0511C118.479 75.2216 117.621 75.3295 116.621 75.375C114.666 75.4659 112.99 75.2386 111.592 74.6932C110.206 74.1364 109.143 73.2727 108.405 72.1023C107.678 70.9318 107.325 69.4602 107.348 67.6875V42.5455ZM147.188 56.8125L139.534 57.017C139.455 56.4716 139.239 55.9886 138.886 55.5682C138.534 55.1364 138.074 54.8011 137.506 54.5625C136.949 54.3125 136.301 54.1875 135.562 54.1875C134.597 54.1875 133.773 54.3807 133.091 54.767C132.42 55.1534 132.091 55.6761 132.102 56.3352C132.091 56.8466 132.295 57.2898 132.716 57.6648C133.148 58.0398 133.915 58.3409 135.017 58.5682L140.062 59.5227C142.676 60.0227 144.619 60.8523 145.892 62.0114C147.176 63.1705 147.824 64.7045 147.835 66.6136C147.824 68.4091 147.29 69.9716 146.233 71.3011C145.188 72.6307 143.756 73.6648 141.938 74.4034C140.119 75.1307 138.04 75.4943 135.699 75.4943C131.96 75.4943 129.011 74.7273 126.852 73.1932C124.705 71.6477 123.477 69.5795 123.17 66.9886L131.403 66.7841C131.585 67.7386 132.057 68.4659 132.818 68.9659C133.58 69.4659 134.551 69.7159 135.733 69.7159C136.801 69.7159 137.67 69.517 138.341 69.1193C139.011 68.7216 139.352 68.1932 139.364 67.5341C139.352 66.9432 139.091 66.4716 138.58 66.1193C138.068 65.7557 137.267 65.4716 136.176 65.267L131.608 64.3977C128.983 63.9205 127.028 63.0398 125.744 61.7557C124.46 60.4602 123.824 58.8125 123.835 56.8125C123.824 55.0625 124.29 53.5682 125.233 52.3295C126.176 51.0795 127.517 50.125 129.256 49.4659C130.994 48.8068 133.045 48.4773 135.409 48.4773C138.955 48.4773 141.75 49.2216 143.795 50.7102C145.841 52.1875 146.972 54.2216 147.188 56.8125Z" fill="white"/>
            <rect x="0.5" y="0.5" width="15" height="15" rx="3.5" fill="#18181B" stroke="#27272A"/>
            <rect x="20.5" y="0.5" width="15" height="15" rx="3.5" fill="#4C1D95" stroke="#6D28D9"/>
            <rect x="40.5" y="0.5" width="15" height="15" rx="3.5" fill="#5B21B6" stroke="#7C3AED"/>
            <rect x="60.5" y="0.5" width="15" height="15" rx="3.5" fill="#6D28D9" stroke="#8B5CF6"/>
            <rect x="80.5" y="0.5" width="15" height="15" rx="3.5" fill="#7C3AED" stroke="#A78BFA"/>
            <rect x="100.5" y="0.5" width="15" height="15" rx="3.5" fill="#8B5CF6" stroke="#C4B5FD"/>
            </svg>